<svg width="24" height="24" viewBox="0 0 24 24" fill="none" xmlns="http://www.w3.org/2000/svg">
  <path d="M16 6H6L4 10M16 6H18L20 10M16 6V4M6 6V4M4 10H20M4 10V17C4 17.5523 4.44772 18 5 18H6C6.55228 18 7 17.5523 7 17V16H17V17C17 17.5523 17.4477 18 18 18H19C19.5523 18 20 17.5523 20 17V10M7 13.5C7 14.3284 6.32843 15 5.5 15C4.67157 15 4 14.3284 4 13.5C4 12.6716 4.67157 12 5.5 12C6.32843 12 7 12.6716 7 13.5ZM20 13.5C20 14.3284 19.3284 15 18.5 15C17.6716 15 17 14.3284 17 13.5C17 12.6716 17.6716 12 18.5 12C19.3284 12 20 12.6716 20 13.5Z" stroke="currentColor" strokeWidth="2" strokeLinecap="round" strokeLinejoin="round"/>
</svg> 